<svg xmlns="http://www.w3.org/2000/svg" width="1200" height="300" viewBox="0 0 1200 300" role="img" aria-label="PoppingMango Sources — Novels, Manga, Manhwa and Manhua for Paperback 0.8 and 0.9">
  <defs>
    <linearGradient id="brand" x1="0" y1="0" x2="1" y2="1">
      <stop offset="0" stop-color="#ffdcea"/>
      <stop offset="0.36" stop-color="#ffbbd5"/>
      <stop offset="0.72" stop-color="#ffcda8"/>
      <stop offset="1" stop-color="#ffc17e"/>
    </linearGradient>
    <linearGradient id="mango" x1="0" y1="0" x2="1" y2="1">
      <stop offset="0" stop-color="#ffc98a"/>
      <stop offset="1" stop-color="#ffa45c"/>
    </linearGradient>
    <radialGradient id="bubble" cx="0.34" cy="0.3" r="0.75">
      <stop offset="0" stop-color="#ffffff" stop-opacity="0.85"/>
      <stop offset="1" stop-color="#ffffff" stop-opacity="0.3"/>
    </radialGradient>
    <radialGradient id="mintBubble" cx="0.34" cy="0.3" r="0.75">
      <stop offset="0" stop-color="#e6f6d8" stop-opacity="0.9"/>
      <stop offset="1" stop-color="#cfebb4" stop-opacity="0.35"/>
    </radialGradient>
    <radialGradient id="peachBubble" cx="0.34" cy="0.3" r="0.75">
      <stop offset="0" stop-color="#ffe8d2" stop-opacity="0.9"/>
      <stop offset="1" stop-color="#ffcda8" stop-opacity="0.35"/>
    </radialGradient>
    <clipPath id="card">
      <rect x="2" y="2" width="1196" height="296" rx="34"/>
    </clipPath>
  </defs>

  <g clip-path="url(#card)">
    <rect x="0" y="0" width="1200" height="300" fill="url(#brand)"/>
    <ellipse cx="540" cy="-70" rx="720" ry="150" fill="#ffffff" opacity="0.35"/>

    <g>
      <circle cx="905" cy="72" r="46" fill="url(#mintBubble)"/>
      <circle cx="891" cy="58" r="10" fill="#ffffff" opacity="0.85"/>
      <circle cx="1012" cy="198" r="70" fill="url(#bubble)"/>
      <circle cx="991" cy="177" r="15" fill="#ffffff" opacity="0.9"/>
      <circle cx="1132" cy="86" r="30" fill="url(#peachBubble)"/>
      <circle cx="1124" cy="78" r="7" fill="#ffffff" opacity="0.9"/>
      <circle cx="834" cy="246" r="22" fill="url(#peachBubble)"/>
      <circle cx="1106" cy="262" r="16" fill="url(#mintBubble)"/>
      <circle cx="757" cy="42" r="14" fill="#ffffff" opacity="0.6"/>
      <circle cx="64" cy="252" r="26" fill="url(#mintBubble)"/>
      <circle cx="56" cy="243" r="6" fill="#ffffff" opacity="0.9"/>
    </g>
  </g>
  <rect x="2" y="2" width="1196" height="296" rx="34" fill="none" stroke="#ffffff" stroke-opacity="0.75" stroke-width="2"/>

  <g transform="translate(152,150)">
    <path d="M0,-96 23.5,-72.3 56.4,-77.7 61.5,-44.7 91.3,-29.7 76,0 91.3,29.7 61.5,44.7 56.4,77.7 23.5,72.3 0,96 -23.5,72.3 -56.4,77.7 -61.5,44.7 -91.3,29.7 -76,0 -91.3,-29.7 -61.5,-44.7 -56.4,-77.7 -23.5,-72.3 Z" fill="#ffffff" opacity="0.55"/>
    <circle r="70" fill="#fff6fa"/>
    <circle r="70" fill="none" stroke="#ffffff" stroke-width="4"/>
    <g transform="rotate(-16)">
      <ellipse cx="0" cy="9" rx="31" ry="40" fill="url(#mango)"/>
      <ellipse cx="-10" cy="-2" rx="10" ry="16" fill="#ffffff" opacity="0.45"/>
      <circle cx="-12" cy="20" r="5" fill="#ffffff" opacity="0.6"/>
      <path d="M2,-29 C4,-40 9,-46 15,-49" fill="none" stroke="#a8d48c" stroke-width="6" stroke-linecap="round"/>
      <ellipse cx="24" cy="-47" rx="13" ry="6.5" fill="#bde3a4" transform="rotate(24 24 -47)"/>
    </g>
    <circle cx="66" cy="-52" r="7" fill="#ffffff" opacity="0.95"/>
    <circle cx="80" cy="-30" r="4.5" fill="#ffffff" opacity="0.8"/>
    <circle cx="-66" cy="50" r="6" fill="#ffffff" opacity="0.85"/>
  </g>

  <g font-family="-apple-system, 'Segoe UI', Helvetica, Arial, sans-serif" fill="#33162a">
    <text x="272" y="150" font-size="64" font-weight="800">PoppingMango Sources</text>
    <text x="274" y="205" font-size="25" font-weight="700" letter-spacing="4" opacity="0.82">NOVELS · MANGA · MANHWA · MANHUA</text>
    <text x="274" y="245" font-size="21" font-weight="600" letter-spacing="2" opacity="0.68">MAINTAINED BY POPMANGO</text>
  </g>
</svg>
